<svg width="768" height="228" viewBox="0 0 768 228" fill="none" xmlns="http://www.w3.org/2000/svg">
<path d="M273.481 92.0871C273.481 70.437 267.33 59.3146 255.022 58.7049C250.127 58.473 245.347 59.2557 240.698 61.0677C236.987 62.4011 234.489 63.7204 233.175 65.0528V116.739C241.044 121.697 248.034 124 254.123 123.639C267.018 122.784 273.471 112.276 273.471 92.0856L273.481 92.0871ZM288.652 92.9857C288.652 103.986 286.081 113.119 280.913 120.375C275.151 128.594 267.166 132.826 256.957 133.058C249.261 133.304 241.327 130.884 233.179 125.81V172.783L219.981 168.058V63.7923C222.147 61.1262 224.933 58.8348 228.313 56.8928C236.167 52.2981 245.72 49.9353 256.95 49.8193L257.137 50.0077C267.404 49.8773 275.315 54.1088 280.871 62.69C286.054 70.5604 288.654 80.6524 288.654 92.9793L288.652 92.9857Z" fill="#646464"/>
<path d="M369.333 123.819C369.333 138.574 367.86 148.785 364.914 154.48C361.954 160.162 356.321 164.698 348.01 168.075C341.267 170.741 333.975 172.191 326.144 172.438L323.963 164.09C331.92 163.003 337.523 161.916 340.778 160.829C347.175 158.655 351.564 155.322 353.976 150.858C355.911 147.219 356.864 140.278 356.864 129.996V126.546C347.838 130.662 338.375 132.707 328.493 132.707C321.995 132.707 316.262 130.663 311.323 126.546C305.778 122.067 303.006 116.386 303.006 109.506V54.3692L316.204 49.8325V105.326C316.204 111.254 318.111 115.819 321.923 119.022C325.735 122.225 330.674 123.761 336.724 123.645C342.775 123.515 349.258 121.166 356.147 116.572V51.8295H369.345V123.813L369.333 123.819Z" fill="#646464"/>
<path d="M420.889 132.339C419.316 132.469 417.871 132.527 416.542 132.527C409.077 132.527 403.258 130.745 399.105 127.165C394.961 123.585 392.881 118.644 392.881 112.339V60.1617H383.841V51.8273H392.881V29.7014L406.065 24.9907V51.8303H420.895V60.1647H406.065V111.985C406.065 116.956 407.394 120.479 410.05 122.537C412.332 124.232 415.957 125.203 420.895 125.45V132.349L420.889 132.339Z" fill="#646464"/>
<path d="M500.741 131.254H487.542V80.1174C487.542 74.9145 486.329 70.4358 483.917 66.6961C481.13 62.4643 477.261 60.3483 472.293 60.3483C466.243 60.3483 458.675 63.5512 449.597 69.957V131.249H436.398V9.02154L449.597 4.84766V60.5193C458.03 54.3589 467.241 51.2719 477.256 51.2719C484.246 51.2719 489.905 53.6347 494.234 58.3454C498.581 63.0561 500.747 68.9251 500.747 75.9361V131.236L500.741 131.254Z" fill="#646464"/>
<path d="M570.963 90.0055C570.963 81.6859 569.39 74.8236 566.255 69.3814C562.529 62.7585 556.739 59.2656 548.907 58.9028C534.437 59.7434 527.218 70.1501 527.218 90.0991C527.218 99.2439 528.72 106.887 531.753 113.013C535.622 120.826 541.428 124.68 549.175 124.55C563.702 124.434 570.967 112.927 570.967 90.0084L570.963 90.0055ZM585.418 90.0924C585.418 101.933 582.4 111.787 576.378 119.653C569.75 128.465 560.6 132.886 548.911 132.886C537.33 132.886 528.304 128.465 521.785 119.653C515.878 111.783 512.933 101.929 512.933 90.0924C512.933 78.9611 516.124 69.6022 522.507 61.9741C529.25 53.8865 538.121 49.8286 549.07 49.8286C560.03 49.8286 568.951 53.8865 575.825 61.9741C582.207 69.5977 585.399 78.9551 585.399 90.0924H585.418Z" fill="#646464"/>
<path d="M661.037 131.254H647.838V77.2179C647.838 71.2894 646.062 66.6664 642.51 63.3327C638.957 60.0138 634.221 58.4049 628.316 58.5357C622.049 58.6517 616.084 60.7097 610.419 64.6962V131.252H597.221V63.0606C604.816 57.5097 611.806 53.886 618.184 52.1909C624.206 50.6118 629.519 49.8281 634.095 49.8281C637.228 49.8281 640.175 50.1325 642.947 50.7413C648.13 51.9442 652.347 54.1761 655.596 57.4519C659.221 61.0756 661.025 65.4235 661.025 70.5104V131.253L661.037 131.254Z" fill="#646464"/>
<path d="M89.6446 9.51363C82.8534 9.5453 76.369 10.1265 70.6668 11.1404C53.852 14.1217 50.8001 20.3595 50.8001 31.8685V47.0652H90.5186V52.1298H50.8001H35.8964C24.3527 52.1298 14.2372 59.0947 11.0816 72.3375C7.43419 87.5194 7.27271 97.0062 11.0816 112.857C13.9053 124.661 20.649 133.065 32.1927 133.065H45.8505V114.85C45.8505 101.69 57.1942 90.0769 70.6653 90.0769H110.339C121.384 90.0769 130.206 80.95 130.206 69.8246V31.8626C130.206 21.0584 121.125 12.9485 110.339 11.1344C103.516 9.99436 96.4357 9.47645 89.6431 9.50768L89.6446 9.51363ZM68.1631 21.7349C72.2668 21.7349 75.6164 25.1534 75.6164 29.3556C75.6164 33.5428 72.2653 36.9301 68.1631 36.9301C64.046 36.9301 60.7097 33.5443 60.7097 29.3556C60.7097 25.1534 64.046 21.7349 68.1631 21.7349Z" fill="url(#paint0_linear_10873_40977)"/>
<path d="M135.156 52.1177V69.8273C135.156 83.5534 123.562 95.1056 110.341 95.1056H70.6667C59.7986 95.1056 50.8 104.441 50.8 115.358V153.32C50.8 164.124 60.1615 170.479 70.6667 173.572C83.24 177.284 95.3038 177.954 110.341 173.572C120.341 170.667 130.207 164.817 130.207 153.32V138.123H90.5334V133.059H130.207H150.074C161.618 133.059 165.926 124.977 169.941 112.851C174.087 100.362 173.911 88.3459 169.941 72.3314C167.087 60.797 161.639 52.1236 150.074 52.1236H135.17L135.156 52.1177ZM112.844 148.264C116.962 148.264 120.298 151.65 120.298 155.839C120.298 160.041 116.962 163.459 112.844 163.459C108.741 163.459 105.391 160.041 105.391 155.839C105.391 151.652 108.742 148.264 112.844 148.264Z" fill="url(#paint1_linear_10873_40977)"/>
<path d="M686.815 40.0139H689.129V25.4477H694.61V23.7109H681.333V25.4477H686.815V40.0139ZM696.662 40.0139H698.638V26.7101L702.929 40.0124H705.13L709.601 26.7547V40.0139H711.758V23.7169H708.905L704.019 37.6839L699.852 23.7169H696.662V40.0139Z" fill="#646464"/>
<path opacity="0.4438" d="M144.249 199.411C144.249 202.159 138.64 204.794 128.657 206.737C118.673 208.68 105.132 209.771 91.0132 209.771C76.8942 209.771 63.3534 208.68 53.3698 206.737C43.3861 204.794 37.7773 202.159 37.7773 199.411C37.7773 196.663 43.3861 194.028 53.3698 192.085C63.3534 190.142 76.8942 189.051 91.0132 189.051C105.132 189.051 118.673 190.142 128.657 192.085C138.64 194.028 144.249 196.663 144.249 199.411Z" fill="url(#paint2_radial_10873_40977)"/>
<defs>
<linearGradient id="paint0_linear_10873_40977" x1="8.28252" y1="9.51035" x2="100.193" y2="87.5135" gradientUnits="userSpaceOnUse">
<stop stop-color="#5A9FD4"/>
<stop offset="1" stop-color="#306998"/>
</linearGradient>
<linearGradient id="paint1_linear_10873_40977" x1="111.907" y1="154.611" x2="78.8238" y2="108.493" gradientUnits="userSpaceOnUse">
<stop stop-color="#FFD43B"/>
<stop offset="1" stop-color="#FFE873"/>
</linearGradient>
<radialGradient id="paint2_radial_10873_40977" cx="0" cy="0" r="1" gradientUnits="userSpaceOnUse" gradientTransform="translate(91.084 199.369) rotate(-90) scale(10.3607 45.3842)">
<stop stop-color="#B8B8B8" stop-opacity="0.498"/>
<stop offset="1" stop-color="#7F7F7F" stop-opacity="0"/>
</radialGradient>
</defs>
</svg>
