<?xml version="1.0" encoding="UTF-8"?>
<!DOCTYPE svg PUBLIC "-//W3C//DTD SVG 1.1//EN" "http://www.w3.org/Graphics/SVG/1.1/DTD/svg11.dtd">
<svg xmlns="http://www.w3.org/2000/svg" version="1.1" width="512px" height="512px" style="shape-rendering:geometricPrecision; text-rendering:geometricPrecision; image-rendering:optimizeQuality; fill-rule:evenodd; clip-rule:evenodd" xmlns:xlink="http://www.w3.org/1999/xlink">
<g><path style="opacity:1" fill="#fdfdfd" d="M 450.5,71.5 C 448.121,70.4331 447.121,71.4331 447.5,74.5C 446.833,77.5 446.167,80.5 445.5,83.5C 444.11,84.8993 443.11,86.5659 442.5,88.5C 437.796,94.2051 432.463,99.2051 426.5,103.5C 424.326,103.75 422.659,104.75 421.5,106.5C 417.665,108.25 413.999,110.25 410.5,112.5C 407.937,113.088 405.604,114.088 403.5,115.5C 401.152,115.592 399.486,116.592 398.5,118.5C 391.197,120.627 383.863,122.627 376.5,124.5C 373.728,124.759 371.395,125.759 369.5,127.5C 367.585,127.216 365.919,127.549 364.5,128.5C 354.269,130.196 344.269,132.196 334.5,134.5C 334.167,134.5 333.833,134.5 333.5,134.5C 321.821,135.568 310.155,136.901 298.5,138.5C 268.17,139.623 237.836,139.623 207.5,138.5C 194.424,137.12 181.424,135.454 168.5,133.5C 166.095,132.232 163.428,131.565 160.5,131.5C 156.355,128.911 151.689,127.911 146.5,128.5C 140.619,126.429 134.619,124.762 128.5,123.5C 125.73,121.059 122.397,119.726 118.5,119.5C 116.146,119.162 113.813,118.662 111.5,118C 108.609,116.273 105.609,114.773 102.5,113.5C 102.027,112.094 101.027,111.427 99.5,111.5C 97.9674,109.755 95.9674,108.755 93.5,108.5C 92.5084,108.672 91.8417,108.338 91.5,107.5C 91.0269,106.094 90.0269,105.427 88.5,105.5C 79.2379,100.572 71.9045,93.5724 66.5,84.5C 66.573,82.9731 65.9063,81.9731 64.5,81.5C 64.7373,80.209 64.404,79.209 63.5,78.5C 63.8076,76.076 63.4742,73.7427 62.5,71.5C 61.5,195.498 61.1667,319.498 61.5,443.5C 60.334,318.667 60.1673,193.667 61,68.5C 62.8918,59.5191 67.0585,51.6857 73.5,45C 90.881,31.2076 110.214,21.2076 131.5,15C 143.796,12.4272 155.963,9.59382 168,6.5C 182.122,4.25413 196.288,2.42079 210.5,1C 245.517,0.111304 280.517,0.444637 315.5,2C 349.184,5.88534 381.518,14.552 412.5,28C 426.919,34.4539 438.419,44.2872 447,57.5C 448.235,62.1839 449.402,66.8506 450.5,71.5 Z"/></g>
<g><path style="opacity:1" fill="#f2f7e7" d="M 224.5,20.5 C 245.329,19.3373 266.329,19.1707 287.5,20C 290.695,20.1805 293.695,20.6805 296.5,21.5C 293.167,21.5 289.833,21.5 286.5,21.5C 266.007,20.5028 245.34,20.1695 224.5,20.5 Z"/></g>
<g><path style="opacity:1" fill="#c6dc72" d="M 224.5,20.5 C 245.34,20.1695 266.007,20.5028 286.5,21.5C 262.486,21.2621 238.486,21.5955 214.5,22.5C 217.589,21.2154 220.922,20.5488 224.5,20.5 Z"/></g>
<g><path style="opacity:1" fill="#e5efcf" d="M 296.5,21.5 C 301.844,21.334 307.177,21.5006 312.5,22C 313.056,22.3826 313.389,22.8826 313.5,23.5C 313.167,23.5 312.833,23.5 312.5,23.5C 306.966,23.3315 301.633,22.6649 296.5,21.5 Z"/></g>
<g><path style="opacity:1" fill="#b7d332" d="M 286.5,21.5 C 289.833,21.5 293.167,21.5 296.5,21.5C 301.633,22.6649 306.966,23.3315 312.5,23.5C 316.295,24.6167 320.295,25.2833 324.5,25.5C 325.833,25.5 327.167,25.5 328.5,25.5C 328.918,26.2216 329.584,26.7216 330.5,27C 333.146,27.4974 335.813,27.6641 338.5,27.5C 340.948,28.4731 343.615,28.8064 346.5,28.5C 346.611,29.1174 346.944,29.6174 347.5,30C 349.81,30.4966 352.143,30.6633 354.5,30.5C 358.265,32.1998 362.265,33.5332 366.5,34.5C 369.294,35.9215 372.294,36.9215 375.5,37.5C 376.209,38.404 377.209,38.7373 378.5,38.5C 379.635,40.2132 381.302,40.8799 383.5,40.5C 392.147,43.9345 399.647,49.2678 406,56.5C 406.757,58.3146 407.59,59.9812 408.5,61.5C 408.693,65.5662 408.36,69.5662 407.5,73.5C 403.425,79.9105 398.092,84.9105 391.5,88.5C 388.303,89.4521 385.303,90.7855 382.5,92.5C 380.055,93.3124 377.722,94.3124 375.5,95.5C 369.097,91.9945 362.097,89.4945 354.5,88C 289.036,73.021 223.369,72.6876 157.5,87C 150.013,89.2532 142.68,91.7532 135.5,94.5C 122.228,91.6169 111.728,84.6169 104,73.5C 100.679,64.9816 102.513,57.815 109.5,52C 117.051,45.886 125.384,41.386 134.5,38.5C 138.151,37.3443 141.818,36.1777 145.5,35C 146.056,34.6174 146.389,34.1174 146.5,33.5C 150.706,32.0322 155.039,31.0322 159.5,30.5C 162.495,30.7062 165.162,30.0395 167.5,28.5C 167.833,28.5 168.167,28.5 168.5,28.5C 172.684,28.1491 176.684,27.4824 180.5,26.5C 183.391,25.5975 186.391,25.2641 189.5,25.5C 195.067,25.0759 200.401,24.0759 205.5,22.5C 208.5,22.5 211.5,22.5 214.5,22.5C 238.486,21.5955 262.486,21.2621 286.5,21.5 Z"/></g>
<g><path style="opacity:1" fill="#cadf84" d="M 205.5,22.5 C 200.401,24.0759 195.067,25.0759 189.5,25.5C 189.611,24.8826 189.944,24.3826 190.5,24C 195.508,23.4992 200.508,22.9992 205.5,22.5 Z"/></g>
<g><path style="opacity:1" fill="#cee195" d="M 312.5,23.5 C 312.833,23.5 313.167,23.5 313.5,23.5C 317.458,23.2511 321.124,23.9177 324.5,25.5C 320.295,25.2833 316.295,24.6167 312.5,23.5 Z"/></g>
<g><path style="opacity:1" fill="#cfe298" d="M 328.5,25.5 C 332.04,25.7526 335.373,26.4192 338.5,27.5C 335.813,27.6641 333.146,27.4974 330.5,27C 329.584,26.7216 328.918,26.2216 328.5,25.5 Z"/></g>
<g><path style="opacity:1" fill="#c8df90" d="M 180.5,26.5 C 176.684,27.4824 172.684,28.1491 168.5,28.5C 172.183,26.7501 176.183,26.0834 180.5,26.5 Z"/></g>
<g><path style="opacity:1" fill="#c9de89" d="M 167.5,28.5 C 165.162,30.0395 162.495,30.7062 159.5,30.5C 161.905,29.2318 164.572,28.5651 167.5,28.5 Z"/></g>
<g><path style="opacity:1" fill="#e0ecc0" d="M 346.5,28.5 C 349.33,28.9628 351.997,29.6295 354.5,30.5C 352.143,30.6633 349.81,30.4966 347.5,30C 346.944,29.6174 346.611,29.1174 346.5,28.5 Z"/></g>
<g><path style="opacity:1" fill="#ccdf8b" d="M 146.5,33.5 C 146.389,34.1174 146.056,34.6174 145.5,35C 141.818,36.1777 138.151,37.3443 134.5,38.5C 137.972,35.8427 141.972,34.176 146.5,33.5 Z"/></g>
<g><path style="opacity:1" fill="#d6e5a0" d="M 366.5,34.5 C 370.077,34.1449 373.077,35.1449 375.5,37.5C 372.294,36.9215 369.294,35.9215 366.5,34.5 Z"/></g>
<g><path style="opacity:1" fill="#cfe296" d="M 378.5,38.5 C 380.403,38.7959 382.07,39.4625 383.5,40.5C 381.302,40.8799 379.635,40.2132 378.5,38.5 Z"/></g>
<g><path style="opacity:1" fill="#d3e499" d="M 408.5,61.5 C 409.643,64.9758 409.81,68.6425 409,72.5C 408.617,73.056 408.117,73.3893 407.5,73.5C 408.36,69.5662 408.693,65.5662 408.5,61.5 Z"/></g>
<g><path style="opacity:1" fill="#c7e0f2" d="M 63.5,78.5 C 62.1667,200.5 62.1667,322.5 63.5,444.5C 63.414,448.319 64.0807,451.985 65.5,455.5C 64.5028,455.53 63.8361,455.03 63.5,454C 62.7855,450.494 62.1189,446.994 61.5,443.5C 61.1667,319.498 61.5,195.498 62.5,71.5C 63.4742,73.7427 63.8076,76.076 63.5,78.5 Z"/></g>
<g><path style="opacity:1" fill="#ebf2f9" d="M 450.5,71.5 C 450.667,196.167 450.5,320.834 450,445.5C 449.722,446.416 449.222,447.082 448.5,447.5C 448.5,446.167 448.5,444.833 448.5,443.5C 449.167,382.168 449.5,320.668 449.5,259C 449.5,197.163 448.833,135.663 447.5,74.5C 447.121,71.4331 448.121,70.4331 450.5,71.5 Z"/></g>
<g><path style="opacity:1" fill="#b4d0ea" d="M 447.5,74.5 C 448.833,135.663 449.5,197.163 449.5,259C 449.5,320.668 449.167,382.168 448.5,443.5C 448.667,322.166 448.5,200.833 448,79.5C 447.066,80.8584 446.232,82.1917 445.5,83.5C 446.167,80.5 446.833,77.5 447.5,74.5 Z"/></g>
<g><path style="opacity:1" fill="#7fba04" d="M 375.5,95.5 C 373.079,95.8782 370.746,96.5448 368.5,97.5C 366.199,98.0604 363.866,98.5604 361.5,99C 360.944,99.3826 360.611,99.8826 360.5,100.5C 358.265,100.205 356.265,100.539 354.5,101.5C 352.473,101.338 350.473,101.505 348.5,102C 347.944,102.383 347.611,102.883 347.5,103.5C 347.167,103.5 346.833,103.5 346.5,103.5C 343.772,103.171 341.438,103.837 339.5,105.5C 336.615,105.194 333.948,105.527 331.5,106.5C 328.15,106.335 324.817,106.502 321.5,107C 320.944,107.383 320.611,107.883 320.5,108.5C 310.521,109.442 300.521,110.275 290.5,111C 267.169,111.5 243.836,111.667 220.5,111.5C 219.391,110.71 218.058,110.21 216.5,110C 212.179,109.501 207.846,109.334 203.5,109.5C 199.936,108.577 196.269,108.244 192.5,108.5C 178.269,106.629 164.269,103.962 150.5,100.5C 148.302,98.6031 145.636,97.6031 142.5,97.5C 140.013,96.6772 137.679,95.6772 135.5,94.5C 142.68,91.7532 150.013,89.2532 157.5,87C 223.369,72.6876 289.036,73.021 354.5,88C 362.097,89.4945 369.097,91.9945 375.5,95.5 Z"/></g>
<g><path style="opacity:1" fill="#4c9bd6" d="M 63.5,78.5 C 64.404,79.209 64.7373,80.209 64.5,81.5C 63.5005,202.332 63.1671,323.332 63.5,444.5C 62.1667,322.5 62.1667,200.5 63.5,78.5 Z"/></g>
<g><path style="opacity:1" fill="#8fb0dc" d="M 64.5,81.5 C 65.9063,81.9731 66.573,82.9731 66.5,84.5C 65.0937,84.0269 64.427,83.0269 64.5,81.5 Z"/></g>
<g><path style="opacity:1" fill="#0272c6" d="M 64.5,81.5 C 64.427,83.0269 65.0937,84.0269 66.5,84.5C 71.9045,93.5724 79.2379,100.572 88.5,105.5C 88.9731,106.906 89.9731,107.573 91.5,107.5C 91.8417,108.338 92.5084,108.672 93.5,108.5C 95.0326,110.245 97.0326,111.245 99.5,111.5C 99.9731,112.906 100.973,113.573 102.5,113.5C 105.609,114.773 108.609,116.273 111.5,118C 113.813,118.662 116.146,119.162 118.5,119.5C 118.611,120.117 118.944,120.617 119.5,121C 122.513,121.909 125.513,122.742 128.5,123.5C 134.619,124.762 140.619,126.429 146.5,128.5C 150.839,130.407 155.505,131.407 160.5,131.5C 162.78,133.223 165.447,133.889 168.5,133.5C 181.424,135.454 194.424,137.12 207.5,138.5C 215.33,139.435 223.33,140.101 231.5,140.5C 250.004,141.167 268.671,141.833 287.5,142.5C 275.81,143.452 264.31,143.785 253,143.5C 252.5,175.165 252.333,206.832 252.5,238.5C 253.873,238.343 255.207,238.51 256.5,239C 254.292,239.191 252.292,239.691 250.5,240.5C 247.794,240.887 245.461,241.887 243.5,243.5C 235.029,245.986 228.029,250.653 222.5,257.5C 220.413,258.585 219.08,260.251 218.5,262.5C 217.833,262.5 217.5,262.833 217.5,263.5C 216.094,263.973 215.427,264.973 215.5,266.5C 213.488,270.242 211.488,273.909 209.5,277.5C 208.593,279.657 207.927,281.99 207.5,284.5C 207.784,286.415 207.451,288.081 206.5,289.5C 205.343,297.656 205.177,305.99 206,314.5C 206.232,315.737 206.732,316.737 207.5,317.5C 212.579,342.243 227.246,357.91 251.5,364.5C 254.701,366.26 258.367,367.094 262.5,367C 259.183,367.498 255.85,367.665 252.5,367.5C 252.5,415.5 252.5,463.5 252.5,511.5C 241.833,511.5 231.167,511.5 220.5,511.5C 215.75,509.969 210.75,509.302 205.5,509.5C 203.833,509.5 202.167,509.5 200.5,509.5C 199.737,508.732 198.737,508.232 197.5,508C 188.856,506.836 180.189,506.003 171.5,505.5C 166.655,502.933 161.322,501.933 155.5,502.5C 155.167,502.5 154.833,502.5 154.5,502.5C 151.689,501.525 148.689,500.858 145.5,500.5C 138.05,497.8 130.383,495.467 122.5,493.5C 122.389,492.883 122.056,492.383 121.5,492C 118.555,490.869 115.555,490.036 112.5,489.5C 110.698,488.542 108.698,487.875 106.5,487.5C 106.167,487.5 105.833,487.5 105.5,487.5C 103.377,485.203 100.71,483.87 97.5,483.5C 95.7952,481.808 93.7952,480.475 91.5,479.5C 91.1667,479.5 90.8333,479.5 90.5,479.5C 90.1667,478.5 89.5,477.833 88.5,477.5C 86.9112,474.92 84.5779,473.587 81.5,473.5C 80.7377,471.738 79.4044,470.738 77.5,470.5C 77.1667,469.5 76.5,468.833 75.5,468.5C 75.1436,466.81 74.1436,465.81 72.5,465.5C 70.6563,461.808 68.3229,458.475 65.5,455.5C 64.0807,451.985 63.414,448.319 63.5,444.5C 63.1671,323.332 63.5005,202.332 64.5,81.5 Z"/></g>
<g><path style="opacity:1" fill="#5896d3" d="M 448.5,443.5 C 448.5,444.833 448.5,446.167 448.5,447.5C 448.5,448.5 448.5,449.5 448.5,450.5C 448.167,450.5 447.833,450.5 447.5,450.5C 447.833,328.498 447.5,206.498 446.5,84.5C 445.479,86.188 444.145,87.5213 442.5,88.5C 443.11,86.5659 444.11,84.8993 445.5,83.5C 446.232,82.1917 447.066,80.8584 448,79.5C 448.5,200.833 448.667,322.166 448.5,443.5 Z"/></g>
<g><path style="opacity:1" fill="#2677c7" d="M 447.5,450.5 C 445.364,454.879 443.031,459.212 440.5,463.5C 439.167,464.167 438.167,465.167 437.5,466.5C 436.5,466.833 435.833,467.5 435.5,468.5C 432.527,470.147 429.86,472.147 427.5,474.5C 413.284,483.141 398.284,490.141 382.5,495.5C 372.424,497.682 362.424,500.182 352.5,503C 338.496,505.333 324.496,507.5 310.5,509.5C 303.595,509.207 296.928,509.874 290.5,511.5C 277.833,511.5 265.167,511.5 252.5,511.5C 252.5,463.5 252.5,415.5 252.5,367.5C 255.85,367.665 259.183,367.498 262.5,367C 258.367,367.094 254.701,366.26 251.5,364.5C 255.415,365.267 259.415,365.767 263.5,366C 271.003,375.001 278.669,383.834 286.5,392.5C 286.5,393.167 286.833,393.5 287.5,393.5C 299.322,394.495 311.322,394.828 323.5,394.5C 323.737,393.209 323.404,392.209 322.5,391.5C 321.415,389.413 319.749,388.08 317.5,387.5C 307.722,379.224 298.388,370.391 289.5,361C 295.615,358.104 301.281,354.437 306.5,350C 310.899,344.664 314.899,339.164 318.5,333.5C 320.834,331.824 321.834,329.491 321.5,326.5C 328.83,303.526 326.33,281.86 314,261.5C 301.14,246.794 284.973,239.127 265.5,238.5C 261.597,238.364 257.93,239.031 254.5,240.5C 253.167,240.5 251.833,240.5 250.5,240.5C 252.292,239.691 254.292,239.191 256.5,239C 255.207,238.51 253.873,238.343 252.5,238.5C 252.333,206.832 252.5,175.165 253,143.5C 264.31,143.785 275.81,143.452 287.5,142.5C 268.671,141.833 250.004,141.167 231.5,140.5C 253.845,140.688 276.178,140.354 298.5,139.5C 309.84,138.476 321.173,137.309 332.5,136C 333.056,135.617 333.389,135.117 333.5,134.5C 333.833,134.5 334.167,134.5 334.5,134.5C 339.519,134.248 344.519,133.748 349.5,133C 354.683,131.911 359.683,130.411 364.5,128.5C 365.919,127.549 367.585,127.216 369.5,127.5C 372.272,127.241 374.605,126.241 376.5,124.5C 383.863,122.627 391.197,120.627 398.5,118.5C 400.674,118.25 402.341,117.25 403.5,115.5C 406.481,115.818 408.815,114.818 410.5,112.5C 413.999,110.25 417.665,108.25 421.5,106.5C 423.674,106.25 425.341,105.25 426.5,103.5C 432.463,99.2051 437.796,94.2051 442.5,88.5C 444.145,87.5213 445.479,86.188 446.5,84.5C 447.5,206.498 447.833,328.498 447.5,450.5 Z"/></g>
<g><path style="opacity:1" fill="#e0ebc1" d="M 391.5,88.5 C 389.176,91.1586 386.176,92.4919 382.5,92.5C 385.303,90.7855 388.303,89.4521 391.5,88.5 Z"/></g>
<g><path style="opacity:1" fill="#d1e3be" d="M 368.5,97.5 C 368.389,98.1174 368.056,98.6174 367.5,99C 365.134,99.4396 362.801,99.9396 360.5,100.5C 360.611,99.8826 360.944,99.3826 361.5,99C 363.866,98.5604 366.199,98.0604 368.5,97.5 Z"/></g>
<g><path style="opacity:1" fill="#c7ddad" d="M 142.5,97.5 C 145.636,97.6031 148.302,98.6031 150.5,100.5C 148.199,99.9396 145.866,99.4396 143.5,99C 142.944,98.6174 142.611,98.1174 142.5,97.5 Z"/></g>
<g><path style="opacity:1" fill="#b5d37d" d="M 354.5,101.5 C 352.343,102.407 350.01,103.073 347.5,103.5C 347.611,102.883 347.944,102.383 348.5,102C 350.473,101.505 352.473,101.338 354.5,101.5 Z"/></g>
<g><path style="opacity:1" fill="#d1e2bf" d="M 346.5,103.5 C 344.485,104.924 342.152,105.59 339.5,105.5C 341.438,103.837 343.772,103.171 346.5,103.5 Z"/></g>
<g><path style="opacity:1" fill="#96b0dc" d="M 426.5,103.5 C 425.341,105.25 423.674,106.25 421.5,106.5C 422.659,104.75 424.326,103.75 426.5,103.5 Z"/></g>
<g><path style="opacity:1" fill="#a0b9e0" d="M 88.5,105.5 C 90.0269,105.427 91.0269,106.094 91.5,107.5C 89.9731,107.573 88.9731,106.906 88.5,105.5 Z"/></g>
<g><path style="opacity:1" fill="#b0d17c" d="M 331.5,106.5 C 327.979,107.307 324.312,107.974 320.5,108.5C 320.611,107.883 320.944,107.383 321.5,107C 324.817,106.502 328.15,106.335 331.5,106.5 Z"/></g>
<g><path style="opacity:1" fill="#c7ddac" d="M 192.5,108.5 C 196.269,108.244 199.936,108.577 203.5,109.5C 203.5,109.833 203.5,110.167 203.5,110.5C 199.613,110.354 195.946,109.687 192.5,108.5 Z"/></g>
<g><path style="opacity:1" fill="#a9cd69" d="M 203.5,110.5 C 203.5,110.167 203.5,109.833 203.5,109.5C 207.846,109.334 212.179,109.501 216.5,110C 218.058,110.21 219.391,110.71 220.5,111.5C 214.862,110.78 209.196,110.447 203.5,110.5 Z"/></g>
<g><path style="opacity:1" fill="#bdcde8" d="M 93.5,108.5 C 95.9674,108.755 97.9674,109.755 99.5,111.5C 97.0326,111.245 95.0326,110.245 93.5,108.5 Z"/></g>
<g><path style="opacity:1" fill="#99b7df" d="M 99.5,111.5 C 101.027,111.427 102.027,112.094 102.5,113.5C 100.973,113.573 99.9731,112.906 99.5,111.5 Z"/></g>
<g><path style="opacity:1" fill="#81a6d8" d="M 410.5,112.5 C 408.815,114.818 406.481,115.818 403.5,115.5C 405.604,114.088 407.937,113.088 410.5,112.5 Z"/></g>
<g><path style="opacity:1" fill="#7ba1d6" d="M 403.5,115.5 C 402.341,117.25 400.674,118.25 398.5,118.5C 399.486,116.592 401.152,115.592 403.5,115.5 Z"/></g>
<g><path style="opacity:1" fill="#b1c8e6" d="M 118.5,119.5 C 122.397,119.726 125.73,121.059 128.5,123.5C 125.513,122.742 122.513,121.909 119.5,121C 118.944,120.617 118.611,120.117 118.5,119.5 Z"/></g>
<g><path style="opacity:1" fill="#a4bce1" d="M 376.5,124.5 C 374.605,126.241 372.272,127.241 369.5,127.5C 371.395,125.759 373.728,124.759 376.5,124.5 Z"/></g>
<g><path style="opacity:1" fill="#bacee9" d="M 146.5,128.5 C 151.689,127.911 156.355,128.911 160.5,131.5C 155.505,131.407 150.839,130.407 146.5,128.5 Z"/></g>
<g><path style="opacity:1" fill="#87aada" d="M 364.5,128.5 C 359.683,130.411 354.683,131.911 349.5,133C 344.519,133.748 339.519,134.248 334.5,134.5C 344.269,132.196 354.269,130.196 364.5,128.5 Z"/></g>
<g><path style="opacity:1" fill="#73a6d9" d="M 160.5,131.5 C 163.428,131.565 166.095,132.232 168.5,133.5C 165.447,133.889 162.78,133.223 160.5,131.5 Z"/></g>
<g><path style="opacity:1" fill="#83a6d8" d="M 333.5,134.5 C 333.389,135.117 333.056,135.617 332.5,136C 321.173,137.309 309.84,138.476 298.5,139.5C 298.5,139.167 298.5,138.833 298.5,138.5C 310.155,136.901 321.821,135.568 333.5,134.5 Z"/></g>
<g><path style="opacity:1" fill="#d6deef" d="M 207.5,138.5 C 237.836,139.623 268.17,139.623 298.5,138.5C 298.5,138.833 298.5,139.167 298.5,139.5C 276.178,140.354 253.845,140.688 231.5,140.5C 223.33,140.101 215.33,139.435 207.5,138.5 Z"/></g>
<g><path style="opacity:1" fill="#c4d0e9" d="M 171.5,239.5 C 171.5,239.833 171.5,240.167 171.5,240.5C 160.403,240.05 149.403,240.717 138.5,242.5C 140.019,241.59 141.685,240.757 143.5,240C 152.981,238.582 162.314,238.416 171.5,239.5 Z"/></g>
<g><path style="opacity:1" fill="#78addc" d="M 171.5,240.5 C 171.5,240.167 171.5,239.833 171.5,239.5C 174.187,239.336 176.854,239.503 179.5,240C 180.056,240.383 180.389,240.883 180.5,241.5C 177.57,240.701 174.57,240.368 171.5,240.5 Z"/></g>
<g><path style="opacity:1" fill="#fafbfd" d="M 171.5,240.5 C 174.57,240.368 177.57,240.701 180.5,241.5C 183.426,242.461 186.426,243.127 189.5,243.5C 189.5,251.833 189.5,260.167 189.5,268.5C 184.559,267.353 179.892,265.52 175.5,263C 168.555,261.77 161.555,261.27 154.5,261.5C 150.87,261.701 148.203,263.368 146.5,266.5C 145.542,266.953 144.708,267.619 144,268.5C 143.204,271.039 143.371,273.372 144.5,275.5C 145.928,279.499 148.261,282.999 151.5,286C 162.759,290.963 173.426,296.963 183.5,304C 186.118,306.106 188.118,308.606 189.5,311.5C 189.896,314.721 191.229,317.388 193.5,319.5C 196.383,346.143 184.383,361.31 157.5,365C 142.635,367.264 128.635,365.097 115.5,358.5C 115.334,349.494 115.5,340.494 116,331.5C 116.671,332.252 117.504,332.586 118.5,332.5C 129.3,342.083 141.967,345.249 156.5,342C 159.106,341.208 161.106,339.708 162.5,337.5C 165.982,333.76 166.315,329.76 163.5,325.5C 162.352,323.245 160.686,321.412 158.5,320C 148.316,314.655 138.316,308.989 128.5,303C 122.602,297.96 118.602,291.794 116.5,284.5C 115.587,278.559 115.254,272.559 115.5,266.5C 119.135,254.533 126.802,246.533 138.5,242.5C 149.403,240.717 160.403,240.05 171.5,240.5 Z"/></g>
<g><path style="opacity:1" fill="#fcfcfd" d="M 321.5,326.5 C 319.935,328.509 318.935,330.843 318.5,333.5C 314.899,339.164 310.899,344.664 306.5,350C 301.281,354.437 295.615,358.104 289.5,361C 298.388,370.391 307.722,379.224 317.5,387.5C 318.5,389.167 319.833,390.5 321.5,391.5C 310.012,392.495 298.345,392.828 286.5,392.5C 278.669,383.834 271.003,375.001 263.5,366C 259.415,365.767 255.415,365.267 251.5,364.5C 227.246,357.91 212.579,342.243 207.5,317.5C 206.613,308.199 206.279,298.866 206.5,289.5C 207.451,288.081 207.784,286.415 207.5,284.5C 208.117,284.389 208.617,284.056 209,283.5C 209.495,281.527 209.662,279.527 209.5,277.5C 211.488,273.909 213.488,270.242 215.5,266.5C 216.906,266.027 217.573,265.027 217.5,263.5C 217.5,262.833 217.833,262.5 218.5,262.5C 220.587,261.415 221.92,259.749 222.5,257.5C 228.029,250.653 235.029,245.986 243.5,243.5C 246.787,242.839 250.12,242.339 253.5,242C 254.056,241.617 254.389,241.117 254.5,240.5C 257.93,239.031 261.597,238.364 265.5,238.5C 284.973,239.127 301.14,246.794 314,261.5C 326.33,281.86 328.83,303.526 321.5,326.5 Z"/></g>
<g><path style="opacity:1" fill="#d1daed" d="M 250.5,240.5 C 251.833,240.5 253.167,240.5 254.5,240.5C 254.389,241.117 254.056,241.617 253.5,242C 250.12,242.339 246.787,242.839 243.5,243.5C 245.461,241.887 247.794,240.887 250.5,240.5 Z"/></g>
<g><path style="opacity:1" fill="#779cd3" d="M 372.5,241.5 C 363.5,241.5 354.5,241.5 345.5,241.5C 345.5,282.167 345.5,322.833 345.5,363.5C 344.501,322.67 344.168,281.67 344.5,240.5C 354.015,240.173 363.348,240.506 372.5,241.5 Z"/></g>
<g><path style="opacity:1" fill="#fefefe" d="M 373.5,340.5 C 387.99,341.496 402.657,341.829 417.5,341.5C 417.5,348.5 417.5,355.5 417.5,362.5C 394.167,362.5 370.833,362.5 347.5,362.5C 346.501,322.67 346.168,282.67 346.5,242.5C 355.167,242.5 363.833,242.5 372.5,242.5C 372.168,275.338 372.502,308.004 373.5,340.5 Z"/></g>
<g><path style="opacity:1" fill="#cad9ed" d="M 372.5,241.5 C 373.498,274.329 373.832,307.329 373.5,340.5C 372.502,308.004 372.168,275.338 372.5,242.5C 363.833,242.5 355.167,242.5 346.5,242.5C 346.168,282.67 346.501,322.67 347.5,362.5C 347.5,362.833 347.5,363.167 347.5,363.5C 346.833,363.5 346.167,363.5 345.5,363.5C 345.5,322.833 345.5,282.167 345.5,241.5C 354.5,241.5 363.5,241.5 372.5,241.5 Z"/></g>
<g><path style="opacity:1" fill="#156cc2" d="M 375.5,340.5 C 375.167,340.5 374.833,340.5 374.5,340.5C 374.333,307.498 374.5,274.498 375,241.5C 375.5,273.832 375.667,306.165 375.5,338.5C 389.171,338.333 402.837,338.5 416.5,339C 402.661,339.169 388.994,339.669 375.5,340.5 Z"/></g>
<g><path style="opacity:1" fill="#becce7" d="M 222.5,257.5 C 221.92,259.749 220.587,261.415 218.5,262.5C 219.08,260.251 220.413,258.585 222.5,257.5 Z"/></g>
<g><path style="opacity:1" fill="#9fbae0" d="M 273.5,263.5 C 268.105,263.267 262.772,263.6 257.5,264.5C 257.611,263.883 257.944,263.383 258.5,263C 263.684,262.184 268.684,262.35 273.5,263.5 Z"/></g>
<g><path style="opacity:1" fill="#729dd5" d="M 154.5,261.5 C 151.88,263.162 149.213,264.828 146.5,266.5C 148.203,263.368 150.87,261.701 154.5,261.5 Z"/></g>
<g><path style="opacity:1" fill="#9db8df" d="M 217.5,263.5 C 217.573,265.027 216.906,266.027 215.5,266.5C 215.427,264.973 216.094,263.973 217.5,263.5 Z"/></g>
<g><path style="opacity:1" fill="#2a77c7" d="M 273.5,263.5 C 286.718,268.57 294.218,278.237 296,292.5C 297.275,303.567 295.942,314.234 292,324.5C 288.208,331.463 282.708,336.463 275.5,339.5C 269.559,340.413 263.559,340.746 257.5,340.5C 254.683,339.905 252.35,338.572 250.5,336.5C 251.5,336.5 252.5,336.5 253.5,336.5C 253.667,313.831 253.5,291.164 253,268.5C 250.687,271.072 247.854,272.739 244.5,273.5C 247.502,268.487 251.835,265.487 257.5,264.5C 262.772,263.6 268.105,263.267 273.5,263.5 Z"/></g>
<g><path style="opacity:1" fill="#1173c6" d="M 250.5,336.5 C 246.88,334.715 244.047,332.048 242,328.5C 240.772,324.941 239.106,321.608 237,318.5C 236.39,315.173 235.89,311.839 235.5,308.5C 235.336,301.798 235.669,295.131 236.5,288.5C 237.667,282.64 240.333,277.64 244.5,273.5C 247.854,272.739 250.687,271.072 253,268.5C 253.5,291.164 253.667,313.831 253.5,336.5C 252.5,336.5 251.5,336.5 250.5,336.5 Z"/></g>
<g><path style="opacity:1" fill="#a7c2e4" d="M 146.5,266.5 C 145.071,269.308 144.405,272.308 144.5,275.5C 143.371,273.372 143.204,271.039 144,268.5C 144.708,267.619 145.542,266.953 146.5,266.5 Z"/></g>
<g><path style="opacity:1" fill="#85b4df" d="M 115.5,266.5 C 115.254,272.559 115.587,278.559 116.5,284.5C 115.883,284.389 115.383,284.056 115,283.5C 114.182,277.651 114.348,271.985 115.5,266.5 Z"/></g>
<g><path style="opacity:1" fill="#7ca5d7" d="M 209.5,277.5 C 209.662,279.527 209.495,281.527 209,283.5C 208.617,284.056 208.117,284.389 207.5,284.5C 207.927,281.99 208.593,279.657 209.5,277.5 Z"/></g>
<g><path style="opacity:1" fill="#a4c8e8" d="M 236.5,288.5 C 235.669,295.131 235.336,301.798 235.5,308.5C 234.836,305.854 234.502,303.021 234.5,300C 234.286,295.867 234.952,292.034 236.5,288.5 Z"/></g>
<g><path style="opacity:1" fill="#7daedc" d="M 206.5,289.5 C 206.279,298.866 206.613,308.199 207.5,317.5C 206.732,316.737 206.232,315.737 206,314.5C 205.177,305.99 205.343,297.656 206.5,289.5 Z"/></g>
<g><path style="opacity:1" fill="#b2c7e6" d="M 189.5,311.5 C 191.797,313.623 193.13,316.29 193.5,319.5C 191.229,317.388 189.896,314.721 189.5,311.5 Z"/></g>
<g><path style="opacity:1" fill="#8baad9" d="M 321.5,326.5 C 321.834,329.491 320.834,331.824 318.5,333.5C 318.935,330.843 319.935,328.509 321.5,326.5 Z"/></g>
<g><path style="opacity:1" fill="#78abdb" d="M 118.5,332.5 C 117.504,332.586 116.671,332.252 116,331.5C 115.5,340.494 115.334,349.494 115.5,358.5C 114.506,349.348 114.173,340.015 114.5,330.5C 116.38,330.229 117.713,330.896 118.5,332.5 Z"/></g>
<g><path style="opacity:1" fill="#5e90d0" d="M 163.5,325.5 C 166.315,329.76 165.982,333.76 162.5,337.5C 162.331,335.088 162.997,332.921 164.5,331C 163.767,329.234 163.433,327.401 163.5,325.5 Z"/></g>
<g><path style="opacity:1" fill="#a8c4e5" d="M 275.5,339.5 C 275.389,340.117 275.056,340.617 274.5,341C 268.651,341.818 262.985,341.652 257.5,340.5C 263.559,340.746 269.559,340.413 275.5,339.5 Z"/></g>
<g><path style="opacity:1" fill="#bed1ea" d="M 373.5,340.5 C 373.833,340.5 374.167,340.5 374.5,340.5C 374.833,340.5 375.167,340.5 375.5,340.5C 389.833,340.5 404.167,340.5 418.5,340.5C 418.5,348.167 418.5,355.833 418.5,363.5C 394.833,363.5 371.167,363.5 347.5,363.5C 347.5,363.167 347.5,362.833 347.5,362.5C 370.833,362.5 394.167,362.5 417.5,362.5C 417.5,355.5 417.5,348.5 417.5,341.5C 402.657,341.829 387.99,341.496 373.5,340.5 Z"/></g>
<g><path style="opacity:1" fill="#769ed4" d="M 317.5,387.5 C 319.749,388.08 321.415,389.413 322.5,391.5C 322.167,391.5 321.833,391.5 321.5,391.5C 319.833,390.5 318.5,389.167 317.5,387.5 Z"/></g>
<g><path style="opacity:1" fill="#c4cfe9" d="M 321.5,391.5 C 321.833,391.5 322.167,391.5 322.5,391.5C 311.215,393.478 299.548,394.145 287.5,393.5C 286.833,393.5 286.5,393.167 286.5,392.5C 298.345,392.828 310.012,392.495 321.5,391.5 Z"/></g>
<g><path style="opacity:1" fill="#7098d1" d="M 322.5,391.5 C 323.404,392.209 323.737,393.209 323.5,394.5C 311.322,394.828 299.322,394.495 287.5,393.5C 299.548,394.145 311.215,393.478 322.5,391.5 Z"/></g>
<g><path style="opacity:1" fill="#ccdef1" d="M 447.5,450.5 C 447.833,450.5 448.167,450.5 448.5,450.5C 448.143,452.589 447.477,454.589 446.5,456.5C 445.144,459.513 443.144,461.847 440.5,463.5C 443.031,459.212 445.364,454.879 447.5,450.5 Z"/></g>
<g><path style="opacity:1" fill="#c7def1" d="M 65.5,455.5 C 68.3229,458.475 70.6563,461.808 72.5,465.5C 69.7438,463.8 67.5771,461.467 66,458.5C 65.5172,457.552 65.3505,456.552 65.5,455.5 Z"/></g>
<g><path style="opacity:1" fill="#e1ecf7" d="M 440.5,463.5 C 440.5,465.5 439.5,466.5 437.5,466.5C 438.167,465.167 439.167,464.167 440.5,463.5 Z"/></g>
<g><path style="opacity:1" fill="#cde1f3" d="M 72.5,465.5 C 74.1436,465.81 75.1436,466.81 75.5,468.5C 73.8564,468.19 72.8564,467.19 72.5,465.5 Z"/></g>
<g><path style="opacity:1" fill="#dbe8f5" d="M 437.5,466.5 C 437.5,467.833 436.833,468.5 435.5,468.5C 435.833,467.5 436.5,466.833 437.5,466.5 Z"/></g>
<g><path style="opacity:1" fill="#e8f2f9" d="M 75.5,468.5 C 76.5,468.833 77.1667,469.5 77.5,470.5C 76.1667,470.5 75.5,469.833 75.5,468.5 Z"/></g>
<g><path style="opacity:1" fill="#d6e5f4" d="M 435.5,468.5 C 434.023,471.934 431.357,473.934 427.5,474.5C 429.86,472.147 432.527,470.147 435.5,468.5 Z"/></g>
<g><path style="opacity:1" fill="#c8dff1" d="M 77.5,470.5 C 79.4044,470.738 80.7377,471.738 81.5,473.5C 79.5956,473.262 78.2623,472.262 77.5,470.5 Z"/></g>
<g><path style="opacity:1" fill="#7fafdf" d="M 81.5,473.5 C 84.5779,473.587 86.9112,474.92 88.5,477.5C 87.391,477.443 86.391,477.11 85.5,476.5C 83.8784,475.878 82.5451,474.878 81.5,473.5 Z"/></g>
<g><path style="opacity:1" fill="#e7f0f9" d="M 85.5,476.5 C 86.391,477.11 87.391,477.443 88.5,477.5C 89.5,477.833 90.1667,478.5 90.5,479.5C 88.1523,479.408 86.4856,478.408 85.5,476.5 Z"/></g>
<g><path style="opacity:1" fill="#d9e9f6" d="M 91.5,479.5 C 93.7952,480.475 95.7952,481.808 97.5,483.5C 94.6627,483.316 92.6627,481.982 91.5,479.5 Z"/></g>
<g><path style="opacity:1" fill="#c4dcf1" d="M 97.5,483.5 C 100.71,483.87 103.377,485.203 105.5,487.5C 102.451,486.792 99.7847,485.459 97.5,483.5 Z"/></g>
<g><path style="opacity:1" fill="#dceaf6" d="M 106.5,487.5 C 108.698,487.875 110.698,488.542 112.5,489.5C 113.5,490.167 114.5,490.833 115.5,491.5C 112.063,490.944 109.063,489.611 106.5,487.5 Z"/></g>
<g><path style="opacity:1" fill="#86b8e2" d="M 112.5,489.5 C 115.555,490.036 118.555,490.869 121.5,492C 122.056,492.383 122.389,492.883 122.5,493.5C 121.391,493.443 120.391,493.11 119.5,492.5C 117.901,492.768 116.568,492.434 115.5,491.5C 114.5,490.833 113.5,490.167 112.5,489.5 Z"/></g>
<g><path style="opacity:1" fill="#cee2f3" d="M 119.5,492.5 C 120.391,493.11 121.391,493.443 122.5,493.5C 130.383,495.467 138.05,497.8 145.5,500.5C 139.203,499.796 133.036,498.463 127,496.5C 124.033,495.667 121.533,494.334 119.5,492.5 Z"/></g>
<g><path style="opacity:1" fill="#c9dcf0" d="M 427.5,474.5 C 427.279,475.735 426.612,476.735 425.5,477.5C 412.314,485.174 398.481,491.507 384,496.5C 359.837,503.493 335.337,508.16 310.5,510.5C 310.5,510.167 310.5,509.833 310.5,509.5C 324.496,507.5 338.496,505.333 352.5,503C 362.424,500.182 372.424,497.682 382.5,495.5C 398.284,490.141 413.284,483.141 427.5,474.5 Z"/></g>
<g><path style="opacity:1" fill="#d6e7f5" d="M 145.5,500.5 C 148.689,500.858 151.689,501.525 154.5,502.5C 151.813,502.664 149.146,502.497 146.5,502C 145.944,501.617 145.611,501.117 145.5,500.5 Z"/></g>
<g><path style="opacity:1" fill="#e9f2f9" d="M 154.5,502.5 C 154.833,502.5 155.167,502.5 155.5,502.5C 157.5,503.167 159.5,503.833 161.5,504.5C 158.612,505.01 156.279,504.344 154.5,502.5 Z"/></g>
<g><path style="opacity:1" fill="#7db0de" d="M 155.5,502.5 C 161.322,501.933 166.655,502.933 171.5,505.5C 170.833,505.5 170.167,505.5 169.5,505.5C 166.615,505.806 163.948,505.473 161.5,504.5C 159.5,503.833 157.5,503.167 155.5,502.5 Z"/></g>
<g><path style="opacity:1" fill="#dceaf6" d="M 169.5,505.5 C 170.167,505.5 170.833,505.5 171.5,505.5C 180.782,507.946 190.449,509.279 200.5,509.5C 202.167,509.5 203.833,509.5 205.5,509.5C 207.167,510.167 208.833,510.833 210.5,511.5C 208.5,511.5 206.5,511.5 204.5,511.5C 193.152,510.512 181.819,509.012 170.5,507C 169.944,506.617 169.611,506.117 169.5,505.5 Z"/></g>
<g><path style="opacity:1" fill="#5299d5" d="M 171.5,505.5 C 180.189,506.003 188.856,506.836 197.5,508C 198.737,508.232 199.737,508.732 200.5,509.5C 190.449,509.279 180.782,507.946 171.5,505.5 Z"/></g>
<g><path style="opacity:1" fill="#579ed7" d="M 205.5,509.5 C 210.75,509.302 215.75,509.969 220.5,511.5C 217.167,511.5 213.833,511.5 210.5,511.5C 208.833,510.833 207.167,510.167 205.5,509.5 Z"/></g>
<g><path style="opacity:1" fill="#93bae2" d="M 310.5,509.5 C 310.5,509.833 310.5,510.167 310.5,510.5C 309.209,510.263 308.209,510.596 307.5,511.5C 301.833,511.5 296.167,511.5 290.5,511.5C 296.928,509.874 303.595,509.207 310.5,509.5 Z"/></g>
</svg>
